<svg width="138" height="106" viewBox="0 0 138 106" fill="none" xmlns="http://www.w3.org/2000/svg">
<g clip-path="url(#clip0_40_12)">
<path d="M113.68 13.8583C110.452 10.6309 106.737 8.45607 103.108 7.56127C99.4787 6.66722 95.6723 7.08956 93.1236 9.63829C90.575 12.1868 90.1525 15.9934 91.0469 19.6228C91.9417 23.2525 94.1165 26.9669 97.3441 30.1945C99.5214 32.3717 101.921 34.0678 104.366 35.2172L97.173 35.2172L97.1722 82.1166L105.259 82.1164L105.259 35.6131C106.143 35.9794 107.032 36.2744 107.915 36.4919C109.932 36.9887 112.003 37.077 113.883 36.6215L113.883 43.8424L110.11 43.8428L110.11 84.9296L122.508 78.7304L122.509 43.8422L118.735 43.8426L118.735 33.4327C120.531 30.9442 120.762 27.6193 119.977 24.4302C119.082 20.8004 116.907 17.0859 113.68 13.8583ZM131.133 36.1751L127.36 36.1757L127.36 81.7283L108.338 91.2392L49.7348 95.4255L49.7344 99.2094L115.665 95.0887L131.133 87.3547L131.133 36.1751ZM110.249 17.2888C112.916 19.9559 114.633 23.0221 115.266 25.5912C115.899 28.1598 115.484 29.9686 114.469 30.9839C113.454 31.9991 111.645 32.4133 109.076 31.7805C106.508 31.1474 103.441 29.431 100.774 26.7639C98.107 24.097 96.3904 21.0303 95.7577 18.4619C95.1245 15.8932 95.5385 14.0841 96.554 13.0687C97.5692 12.0534 99.3785 11.6393 101.947 12.2724C104.516 12.9048 107.582 14.622 110.249 17.2888ZM92.3208 35.217L15.2345 35.2164L15.2345 82.1162L92.3204 82.116L92.3208 35.217ZM10.3829 35.2165L2.29705 35.2176L2.29647 82.1152L10.3829 82.1154L10.3827 35.217L10.3829 35.2165Z" fill="#B570FF"/>
<path d="M35.8 61.0171V71.6136C35.8 72.9936 35.3729 74.1107 34.5186 74.965C33.6643 75.7864 32.5471 76.1971 31.1671 76.1971H27.6186C26.2386 76.1971 25.1214 75.7864 24.2671 74.965C23.4129 74.1107 22.9857 72.9936 22.9857 71.6136V45.8864C22.9857 44.5064 23.4129 43.4057 24.2671 42.5843C25.1214 41.73 26.2386 41.3029 27.6186 41.3029H31.1671C32.5471 41.3029 33.6643 41.73 34.5186 42.5843C35.3729 43.4057 35.8 44.5064 35.8 45.8864V56.9264L31.1179 56.4336V46.1329C31.1179 45.9686 31.0357 45.8864 30.8714 45.8864H27.9143C27.75 45.8864 27.6679 45.9686 27.6679 46.1329V71.3671C27.6679 71.5314 27.75 71.6136 27.9143 71.6136H30.8714C31.0357 71.6136 31.1179 71.5314 31.1179 71.3671V61.0171H35.8ZM42.4439 66.1429V71.3671C42.4439 71.5314 42.5261 71.6136 42.6904 71.6136H44.6618C44.8261 71.6136 44.9082 71.5314 44.9082 71.3671V62.4957L41.0147 60.7707C40.7189 60.6721 40.3082 60.5079 39.7825 60.2779C39.2568 60.015 38.7804 59.6371 38.3532 59.1443C37.9589 58.6514 37.7618 57.9779 37.7618 57.1236V45.8864C37.7618 44.5064 38.1889 43.4057 39.0432 42.5843C39.8975 41.73 41.0147 41.3029 42.3947 41.3029H44.9575C46.3375 41.3029 47.4547 41.73 48.3089 42.5843C49.1632 43.4057 49.5904 44.5064 49.5904 45.8864V53.1807L44.9082 52.7864V46.1329C44.9082 45.9686 44.8261 45.8864 44.6618 45.8864H42.6904C42.5261 45.8864 42.4439 45.9686 42.4439 46.1329V56.4336L46.3375 58.1586C46.6332 58.29 47.0439 58.4707 47.5697 58.7007C48.0954 58.9307 48.5554 59.2921 48.9497 59.785C49.3768 60.2779 49.5904 60.9514 49.5904 61.8057V71.6136C49.5904 72.9936 49.1632 74.1107 48.3089 74.965C47.4547 75.7864 46.3375 76.1971 44.9575 76.1971H42.3947C41.0147 76.1971 39.8975 75.7864 39.0432 74.965C38.1889 74.1107 37.7618 72.9936 37.7618 71.6136V66.1429H42.4439ZM62.7631 76H51.5753V63.235C51.5753 61.855 51.986 60.7543 52.8074 59.9329C53.6617 59.0786 54.7296 58.6514 56.011 58.6514H57.8346C57.9989 58.6514 58.081 58.5693 58.081 58.405V51.2586C58.081 51.0943 57.9989 51.0121 57.8346 51.0121H51.5753V46.4286H58.1303C59.5103 46.4286 60.6274 46.8557 61.4817 47.71C62.336 48.5314 62.7631 49.6321 62.7631 51.0121V58.6514C62.7631 60.0314 62.336 61.1486 61.4817 62.0029C60.6274 62.8243 59.5103 63.235 58.1303 63.235H56.5039C56.3396 63.235 56.2574 63.3171 56.2574 63.4814V71.4164H62.7631V76ZM64.9614 76V46.0836H64.2221L64.7149 41.5H72.4035L74.7692 60.0807L77.1842 41.5H84.7249V76H80.0428V49.1886L76.3956 71.0714H73.1921L69.6435 49.78V76H64.9614Z" fill="white"/>
</g>
<defs>
<clipPath id="clip0_40_12">
<rect width="138" height="106" fill="white"/>
</clipPath>
</defs>
</svg>
